<?xml version="1.0" encoding="UTF-8" standalone="no"?>
<!DOCTYPE svg PUBLIC "-//W3C//DTD SVG 1.1//EN"
 "http://www.w3.org/Graphics/SVG/1.1/DTD/svg11.dtd">
<!-- Generated by graphviz version 9.0.0 (0)
 -->
<!-- Pages: 1 -->
<svg width="159pt" height="98pt"
 viewBox="0.00 0.00 158.75 98.00" xmlns="http://www.w3.org/2000/svg" xmlns:xlink="http://www.w3.org/1999/xlink">
<g id="graph0" class="graph" transform="scale(1 1) rotate(0) translate(4 94)">
<polygon fill="white" stroke="none" points="-4,4 -4,-94 154.75,-94 154.75,4 -4,4"/>
<!-- X1i -->
<g id="node1" class="node">
<title>X1i</title>
<ellipse fill="none" stroke="black" cx="27" cy="-72" rx="27" ry="18"/>
<text text-anchor="middle" x="27" y="-66.95" font-family="Times,serif" font-size="14.00">X1i</text>
</g>
<!-- Yi -->
<g id="node2" class="node">
<title>Yi</title>
<ellipse fill="none" stroke="black" cx="123.75" cy="-45" rx="27" ry="18"/>
<text text-anchor="middle" x="123.75" y="-39.95" font-family="Times,serif" font-size="14.00">Yi</text>
</g>
<!-- X1i&#45;&gt;Yi -->
<g id="edge1" class="edge">
<title>X1i&#45;&gt;Yi</title>
<path fill="none" stroke="black" d="M52.4,-65.05C63.12,-61.99 75.91,-58.35 87.63,-55.01"/>
<polygon fill="black" stroke="black" points="88.32,-58.45 96.98,-52.34 86.4,-51.72 88.32,-58.45"/>
</g>
<!-- &#x03B5; -->
<g id="node3" class="node">
<title>&#x03B5;</title>
<ellipse fill="none" stroke="black" cx="27" cy="-18" rx="27" ry="18"/>
<text text-anchor="middle" x="27" y="-12.95" font-family="Times,serif" font-size="14.00">ε</text>
</g>
<!-- &#x03B5;&#45;&gt;Yi -->
<g id="edge2" class="edge">
<title>&#x03B5;&#45;&gt;Yi</title>
<path fill="none" stroke="black" stroke-dasharray="5,2" d="M52.4,-24.95C63.12,-28.01 75.91,-31.65 87.63,-34.99"/>
<polygon fill="black" stroke="black" points="86.4,-38.28 96.98,-37.66 88.32,-31.55 86.4,-38.28"/>
<text text-anchor="middle" x="75.38" y="-36.2" font-family="Times,serif" font-size="14.00">β</text>
</g>
</g>
</svg>
