<?xml version="1.0" encoding="UTF-8" standalone="no"?>
<!DOCTYPE svg PUBLIC "-//W3C//DTD SVG 1.1//EN"
 "http://www.w3.org/Graphics/SVG/1.1/DTD/svg11.dtd">
<!-- Generated by graphviz version 9.0.0 (0)
 -->
<!-- Pages: 1 -->
<svg width="306pt" height="74pt"
 viewBox="0.00 0.00 305.75 74.00" xmlns="http://www.w3.org/2000/svg" xmlns:xlink="http://www.w3.org/1999/xlink">
<g id="graph0" class="graph" transform="scale(1 1) rotate(0) translate(4 70)">
<polygon fill="white" stroke="none" points="-4,4 -4,-70 301.75,-70 301.75,4 -4,4"/>
<!-- X1i -->
<g id="node1" class="node">
<title>X1i</title>
<ellipse fill="none" stroke="black" cx="167.25" cy="-48" rx="27" ry="18"/>
<text text-anchor="middle" x="167.25" y="-42.95" font-family="Times,serif" font-size="14.00">X1i</text>
</g>
<!-- Yi -->
<g id="node2" class="node">
<title>Yi</title>
<ellipse fill="none" stroke="black" cx="270.75" cy="-18" rx="27" ry="18"/>
<text text-anchor="middle" x="270.75" y="-12.95" font-family="Times,serif" font-size="14.00">Yi</text>
</g>
<!-- X1i&#45;&gt;Yi -->
<g id="edge1" class="edge">
<title>X1i&#45;&gt;Yi</title>
<path fill="none" stroke="black" d="M192.56,-40.81C205.24,-37.07 220.98,-32.42 234.93,-28.29"/>
<polygon fill="black" stroke="black" points="235.59,-31.75 244.19,-25.56 233.6,-25.03 235.59,-31.75"/>
<text text-anchor="middle" x="219" y="-37.2" font-family="Times,serif" font-size="14.00">β1</text>
</g>
<!-- &#x03B5; -->
<g id="node3" class="node">
<title>&#x03B5;</title>
<ellipse fill="none" stroke="black" cx="27" cy="-21" rx="27" ry="18"/>
<text text-anchor="middle" x="27" y="-15.95" font-family="Times,serif" font-size="14.00">ε</text>
</g>
<!-- &#x03B5;&#45;&gt;X1i -->
<g id="edge3" class="edge">
<title>&#x03B5;&#45;&gt;X1i</title>
<path fill="none" stroke="black" stroke-dasharray="5,2" d="M53.36,-25.95C74.79,-30.14 105.77,-36.19 129.86,-40.89"/>
<polygon fill="black" stroke="black" points="129.08,-44.31 139.57,-42.79 130.42,-37.44 129.08,-44.31"/>
<text text-anchor="middle" x="97.12" y="-42.2" font-family="Times,serif" font-size="14.00">backdoor</text>
</g>
<!-- &#x03B5;&#45;&gt;Yi -->
<g id="edge2" class="edge">
<title>&#x03B5;&#45;&gt;Yi</title>
<path fill="none" stroke="black" stroke-dasharray="5,2" d="M54.33,-20.67C97.29,-20.14 182.61,-19.08 232.01,-18.47"/>
<polygon fill="black" stroke="black" points="231.98,-21.97 241.94,-18.35 231.89,-14.97 231.98,-21.97"/>
</g>
</g>
</svg>
