<?xml version="1.0" encoding="UTF-8" standalone="no"?>
<!DOCTYPE svg PUBLIC "-//W3C//DTD SVG 1.1//EN"
 "http://www.w3.org/Graphics/SVG/1.1/DTD/svg11.dtd">
<!-- Generated by graphviz version 9.0.0 (0)
 -->
<!-- Pages: 1 -->
<svg width="257pt" height="139pt"
 viewBox="0.00 0.00 256.50 139.00" xmlns="http://www.w3.org/2000/svg" xmlns:xlink="http://www.w3.org/1999/xlink">
<g id="graph0" class="graph" transform="scale(1 1) rotate(0) translate(4 135)">
<polygon fill="white" stroke="none" points="-4,4 -4,-135 252.5,-135 252.5,4 -4,4"/>
<!-- X1i -->
<g id="node1" class="node">
<title>X1i</title>
<ellipse fill="none" stroke="black" cx="118" cy="-59" rx="27" ry="18"/>
<text text-anchor="middle" x="118" y="-53.95" font-family="Times,serif" font-size="14.00">X1i</text>
</g>
<!-- Yi -->
<g id="node2" class="node">
<title>Yi</title>
<ellipse fill="none" stroke="black" cx="221.5" cy="-59" rx="27" ry="18"/>
<text text-anchor="middle" x="221.5" y="-53.95" font-family="Times,serif" font-size="14.00">Yi</text>
</g>
<!-- X1i&#45;&gt;Yi -->
<g id="edge1" class="edge">
<title>X1i&#45;&gt;Yi</title>
<path fill="none" stroke="black" d="M145.4,-59C156.8,-59 170.34,-59 182.76,-59"/>
<polygon fill="black" stroke="black" points="182.72,-62.5 192.72,-59 182.72,-55.5 182.72,-62.5"/>
<text text-anchor="middle" x="169.75" y="-62.2" font-family="Times,serif" font-size="14.00">β1</text>
</g>
<!-- &#x03B5; -->
<g id="node3" class="node">
<title>&#x03B5;</title>
<ellipse fill="none" stroke="black" cx="118" cy="-113" rx="27" ry="18"/>
<text text-anchor="middle" x="118" y="-107.95" font-family="Times,serif" font-size="14.00">ε</text>
</g>
<!-- &#x03B5;&#45;&gt;Yi -->
<g id="edge2" class="edge">
<title>&#x03B5;&#45;&gt;Yi</title>
<path fill="none" stroke="black" stroke-dasharray="5,2" d="M139.54,-102.07C153.89,-94.44 173.31,-84.11 189.53,-75.48"/>
<polygon fill="black" stroke="black" points="191.12,-78.59 198.31,-70.81 187.83,-72.41 191.12,-78.59"/>
</g>
<!-- X2i -->
<g id="node4" class="node">
<title>X2i</title>
<ellipse fill="none" stroke="black" cx="27" cy="-18" rx="27" ry="18"/>
<text text-anchor="middle" x="27" y="-12.95" font-family="Times,serif" font-size="14.00">X2i</text>
</g>
<!-- X2i&#45;&gt;X1i -->
<g id="edge3" class="edge">
<title>X2i&#45;&gt;X1i</title>
<path fill="none" stroke="black" d="M50,-28.13C60.56,-33 73.42,-38.92 85.04,-44.27"/>
<polygon fill="black" stroke="black" points="83.33,-47.34 93.88,-48.35 86.26,-40.99 83.33,-47.34"/>
</g>
<!-- X2i&#45;&gt;Yi -->
<g id="edge4" class="edge">
<title>X2i&#45;&gt;Yi</title>
<path fill="none" stroke="black" d="M53.59,-13.4C77.63,-10.03 114.38,-7.31 145,-15.5 162.4,-20.16 179.95,-29.89 193.75,-38.98"/>
<polygon fill="black" stroke="black" points="191.61,-41.75 201.83,-44.54 195.57,-35.98 191.61,-41.75"/>
<text text-anchor="middle" x="118" y="-19.2" font-family="Times,serif" font-size="14.00">β2</text>
</g>
</g>
</svg>
