<?xml version="1.0" encoding="UTF-8" standalone="no"?>
<!DOCTYPE svg PUBLIC "-//W3C//DTD SVG 1.1//EN"
 "http://www.w3.org/Graphics/SVG/1.1/DTD/svg11.dtd">
<!-- Generated by graphviz version 11.0.0 (0)
 -->
<!-- Pages: 1 -->
<svg width="134pt" height="188pt"
 viewBox="0.00 0.00 134.00 188.00" xmlns="http://www.w3.org/2000/svg" xmlns:xlink="http://www.w3.org/1999/xlink">
<g id="graph0" class="graph" transform="scale(1 1) rotate(0) translate(4 184)">
<polygon fill="white" stroke="none" points="-4,4 -4,-184 130,-184 130,4 -4,4"/>
<!-- Q -->
<g id="node1" class="node">
<title>Q</title>
<ellipse fill="none" stroke="black" cx="27" cy="-162" rx="27" ry="18"/>
<text text-anchor="middle" x="27" y="-156.95" font-family="Times,serif" font-size="14.00">Q</text>
</g>
<!-- E -->
<g id="node2" class="node">
<title>E</title>
<ellipse fill="none" stroke="black" cx="44" cy="-90" rx="27" ry="18"/>
<text text-anchor="middle" x="44" y="-84.95" font-family="Times,serif" font-size="14.00">E</text>
</g>
<!-- Q&#45;&gt;E -->
<g id="edge1" class="edge">
<title>Q&#45;&gt;E</title>
<path fill="none" stroke="black" d="M31.12,-144.05C32.93,-136.6 35.1,-127.64 37.15,-119.22"/>
<polygon fill="black" stroke="black" points="40.49,-120.29 39.45,-109.75 33.69,-118.64 40.49,-120.29"/>
</g>
<!-- R -->
<g id="node4" class="node">
<title>R</title>
<ellipse fill="none" stroke="black" cx="71" cy="-18" rx="27" ry="18"/>
<text text-anchor="middle" x="71" y="-12.95" font-family="Times,serif" font-size="14.00">R</text>
</g>
<!-- E&#45;&gt;R -->
<g id="edge4" class="edge">
<title>E&#45;&gt;R</title>
<path fill="none" stroke="black" d="M50.54,-72.05C53.52,-64.32 57.13,-54.96 60.48,-46.27"/>
<polygon fill="black" stroke="black" points="63.65,-47.79 63.98,-37.2 57.12,-45.27 63.65,-47.79"/>
</g>
<!-- U -->
<g id="node3" class="node">
<title>U</title>
<ellipse fill="none" stroke="black" stroke-dasharray="5,2" cx="99" cy="-162" rx="27" ry="18"/>
<text text-anchor="middle" x="99" y="-156.95" font-family="Times,serif" font-size="14.00">U</text>
</g>
<!-- U&#45;&gt;E -->
<g id="edge2" class="edge">
<title>U&#45;&gt;E</title>
<path fill="none" stroke="black" d="M86.79,-145.46C79.89,-136.67 71.09,-125.48 63.27,-115.53"/>
<polygon fill="black" stroke="black" points="66.04,-113.38 57.11,-107.68 60.53,-117.71 66.04,-113.38"/>
</g>
<!-- U&#45;&gt;R -->
<g id="edge3" class="edge">
<title>U&#45;&gt;R</title>
<path fill="none" stroke="black" d="M95.62,-143.87C90.89,-119.88 82.24,-75.99 76.55,-47.16"/>
<polygon fill="black" stroke="black" points="80.05,-46.81 74.68,-37.67 73.18,-48.16 80.05,-46.81"/>
</g>
</g>
</svg>
