<?xml version="1.0" encoding="UTF-8" standalone="no"?>
<!DOCTYPE svg PUBLIC "-//W3C//DTD SVG 1.1//EN"
 "http://www.w3.org/Graphics/SVG/1.1/DTD/svg11.dtd">
<!-- Generated by graphviz version 11.0.0 (0)
 -->
<!-- Pages: 1 -->
<svg width="369pt" height="332pt"
 viewBox="0.00 0.00 369.42 332.00" xmlns="http://www.w3.org/2000/svg" xmlns:xlink="http://www.w3.org/1999/xlink">
<g id="graph0" class="graph" transform="scale(1 1) rotate(0) translate(4 328)">
<polygon fill="white" stroke="none" points="-4,4 -4,-328 365.42,-328 365.42,4 -4,4"/>
<!-- u -->
<g id="node1" class="node">
<title>u</title>
<ellipse fill="none" stroke="black" cx="59.31" cy="-306" rx="27" ry="18"/>
<text text-anchor="middle" x="59.31" y="-300.95" font-family="Times,serif" font-size="14.00">u</text>
</g>
<!-- X1_1 -->
<g id="node2" class="node">
<title>X1_1</title>
<ellipse fill="none" stroke="black" cx="137.31" cy="-234" rx="31.39" ry="18"/>
<text text-anchor="middle" x="137.31" y="-228.95" font-family="Times,serif" font-size="14.00">X1_1</text>
</g>
<!-- u&#45;&gt;X1_1 -->
<g id="edge1" class="edge">
<title>u&#45;&gt;X1_1</title>
<path fill="none" stroke="black" stroke-dasharray="5,2" d="M74.72,-291.17C85.44,-281.55 99.97,-268.52 112.33,-257.42"/>
<polygon fill="black" stroke="black" points="114.63,-260.06 119.73,-250.78 109.95,-254.85 114.63,-260.06"/>
</g>
<!-- X1_2 -->
<g id="node3" class="node">
<title>X1_2</title>
<ellipse fill="none" stroke="black" cx="129.31" cy="-162" rx="31.39" ry="18"/>
<text text-anchor="middle" x="129.31" y="-156.95" font-family="Times,serif" font-size="14.00">X1_2</text>
</g>
<!-- u&#45;&gt;X1_2 -->
<g id="edge2" class="edge">
<title>u&#45;&gt;X1_2</title>
<path fill="none" stroke="black" stroke-dasharray="5,2" d="M65.64,-288.28C72.69,-270.15 84.75,-240.52 97.31,-216 101.91,-207.02 107.44,-197.5 112.6,-189.05"/>
<polygon fill="black" stroke="black" points="115.51,-191 117.82,-180.66 109.56,-187.3 115.51,-191"/>
</g>
<!-- X1_3 -->
<g id="node4" class="node">
<title>X1_3</title>
<ellipse fill="none" stroke="black" cx="91.31" cy="-90" rx="31.39" ry="18"/>
<text text-anchor="middle" x="91.31" y="-84.95" font-family="Times,serif" font-size="14.00">X1_3</text>
</g>
<!-- u&#45;&gt;X1_3 -->
<g id="edge3" class="edge">
<title>u&#45;&gt;X1_3</title>
<path fill="none" stroke="black" stroke-dasharray="5,2" d="M46.69,-289.88C39.16,-279.83 30.31,-265.97 26.31,-252 13.12,-205.85 5.72,-187.36 26.31,-144 33.23,-129.43 46.33,-117.55 58.97,-108.75"/>
<polygon fill="black" stroke="black" points="60.66,-111.83 67.16,-103.46 56.86,-105.95 60.66,-111.83"/>
</g>
<!-- Y_1 -->
<g id="node5" class="node">
<title>Y_1</title>
<ellipse fill="none" stroke="black" cx="205.31" cy="-162" rx="27" ry="18"/>
<text text-anchor="middle" x="205.31" y="-156.95" font-family="Times,serif" font-size="14.00">Y_1</text>
</g>
<!-- u&#45;&gt;Y_1 -->
<g id="edge4" class="edge">
<title>u&#45;&gt;Y_1</title>
<path fill="none" stroke="black" d="M85.09,-299.93C111.8,-293.36 152.99,-279.36 177.31,-252 192.13,-235.34 199.11,-210.86 202.39,-191.8"/>
<polygon fill="black" stroke="black" points="205.85,-192.36 203.82,-181.96 198.92,-191.36 205.85,-192.36"/>
</g>
<!-- Y_2 -->
<g id="node6" class="node">
<title>Y_2</title>
<ellipse fill="none" stroke="black" cx="167.31" cy="-90" rx="27" ry="18"/>
<text text-anchor="middle" x="167.31" y="-84.95" font-family="Times,serif" font-size="14.00">Y_2</text>
</g>
<!-- u&#45;&gt;Y_2 -->
<g id="edge5" class="edge">
<title>u&#45;&gt;Y_2</title>
<path fill="none" stroke="black" d="M58.39,-287.92C57.52,-256.7 59.59,-189.45 89.31,-144 95.57,-134.43 118.21,-119.53 137.5,-107.96"/>
<polygon fill="black" stroke="black" points="139.04,-111.12 145.88,-103.03 135.48,-105.09 139.04,-111.12"/>
</g>
<!-- Y_3 -->
<g id="node7" class="node">
<title>Y_3</title>
<ellipse fill="none" stroke="black" cx="91.31" cy="-18" rx="27" ry="18"/>
<text text-anchor="middle" x="91.31" y="-12.95" font-family="Times,serif" font-size="14.00">Y_3</text>
</g>
<!-- u&#45;&gt;Y_3 -->
<g id="edge6" class="edge">
<title>u&#45;&gt;Y_3</title>
<path fill="none" stroke="black" d="M42.54,-291.66C31.73,-281.95 18.56,-267.78 12.31,-252 -5.34,-207.36 -1.97,-190.41 10.31,-144 20.83,-104.28 49.5,-65.71 69.74,-42.16"/>
<polygon fill="black" stroke="black" points="72.29,-44.56 76.28,-34.75 67.04,-39.93 72.29,-44.56"/>
</g>
<!-- X1_1&#45;&gt;X1_2 -->
<g id="edge16" class="edge">
<title>X1_1&#45;&gt;X1_2</title>
<path fill="none" stroke="black" d="M135.34,-215.7C134.5,-208.41 133.51,-199.73 132.58,-191.54"/>
<polygon fill="black" stroke="black" points="136.05,-191.15 131.44,-181.61 129.1,-191.94 136.05,-191.15"/>
</g>
<!-- X1_1&#45;&gt;Y_1 -->
<g id="edge13" class="edge">
<title>X1_1&#45;&gt;Y_1</title>
<path fill="none" stroke="black" d="M152.07,-217.81C161.19,-208.42 173.07,-196.19 183.3,-185.67"/>
<polygon fill="black" stroke="black" points="185.54,-188.38 190,-178.77 180.52,-183.5 185.54,-188.38"/>
</g>
<!-- X1_2&#45;&gt;X1_3 -->
<g id="edge17" class="edge">
<title>X1_2&#45;&gt;X1_3</title>
<path fill="none" stroke="black" d="M120.31,-144.41C115.96,-136.39 110.62,-126.57 105.72,-117.54"/>
<polygon fill="black" stroke="black" points="108.82,-115.92 100.98,-108.8 102.67,-119.26 108.82,-115.92"/>
</g>
<!-- X1_2&#45;&gt;Y_2 -->
<g id="edge14" class="edge">
<title>X1_2&#45;&gt;Y_2</title>
<path fill="none" stroke="black" d="M138.32,-144.41C142.67,-136.39 148.01,-126.57 152.91,-117.54"/>
<polygon fill="black" stroke="black" points="155.96,-119.26 157.65,-108.8 149.8,-115.92 155.96,-119.26"/>
</g>
<!-- X1_3&#45;&gt;Y_3 -->
<g id="edge15" class="edge">
<title>X1_3&#45;&gt;Y_3</title>
<path fill="none" stroke="black" d="M91.31,-71.7C91.31,-64.41 91.31,-55.73 91.31,-47.54"/>
<polygon fill="black" stroke="black" points="94.81,-47.62 91.31,-37.62 87.81,-47.62 94.81,-47.62"/>
</g>
<!-- X2 -->
<g id="node8" class="node">
<title>X2</title>
<ellipse fill="none" stroke="black" cx="291.31" cy="-306" rx="27" ry="18"/>
<text text-anchor="middle" x="291.31" y="-300.95" font-family="Times,serif" font-size="14.00">X2</text>
</g>
<!-- X2&#45;&gt;X1_1 -->
<g id="edge7" class="edge">
<title>X2&#45;&gt;X1_1</title>
<path fill="none" stroke="black" d="M269.25,-294.97C243.77,-283.39 201.54,-264.19 171.73,-250.64"/>
<polygon fill="black" stroke="black" points="173.3,-247.51 162.74,-246.56 170.4,-253.88 173.3,-247.51"/>
</g>
<!-- X2&#45;&gt;X1_2 -->
<g id="edge8" class="edge">
<title>X2&#45;&gt;X1_2</title>
<path fill="none" stroke="black" d="M275.49,-291.13C247.28,-266.4 188.1,-214.53 154.34,-184.93"/>
<polygon fill="black" stroke="black" points="156.9,-182.52 147.07,-178.56 152.28,-187.79 156.9,-182.52"/>
</g>
<!-- X2&#45;&gt;X1_3 -->
<g id="edge9" class="edge">
<title>X2&#45;&gt;X1_3</title>
<path fill="none" stroke="black" d="M291.26,-287.51C290.15,-254.38 282.79,-182.34 241.31,-144 203.54,-109.08 179.47,-126.08 131.31,-108 129.57,-107.34 127.78,-106.66 125.99,-105.95"/>
<polygon fill="black" stroke="black" points="127.7,-102.87 117.12,-102.33 125.06,-109.35 127.7,-102.87"/>
</g>
<!-- X2&#45;&gt;Y_1 -->
<g id="edge10" class="edge">
<title>X2&#45;&gt;Y_1</title>
<path fill="none" stroke="black" d="M284.63,-288.32C276.97,-269.96 263.49,-239.9 248.31,-216 241.81,-205.76 233.63,-195.22 226.15,-186.28"/>
<polygon fill="black" stroke="black" points="228.86,-184.07 219.7,-178.75 223.55,-188.62 228.86,-184.07"/>
</g>
<!-- X2&#45;&gt;Y_2 -->
<g id="edge11" class="edge">
<title>X2&#45;&gt;Y_2</title>
<path fill="none" stroke="black" d="M303.94,-289.88C311.47,-279.83 320.32,-265.97 324.31,-252 337.51,-205.85 352.31,-182.99 324.31,-144 297.52,-106.67 243.05,-95.29 205.87,-92.01"/>
<polygon fill="black" stroke="black" points="206.19,-88.53 195.97,-91.32 205.7,-95.51 206.19,-88.53"/>
</g>
<!-- X2&#45;&gt;Y_3 -->
<g id="edge12" class="edge">
<title>X2&#45;&gt;Y_3</title>
<path fill="none" stroke="black" d="M309.58,-292.24C321.58,-282.7 336.31,-268.49 343.31,-252 362.09,-207.82 370.44,-184.91 345.31,-144 297.91,-66.81 187.11,-35.98 128.77,-24.76"/>
<polygon fill="black" stroke="black" points="129.45,-21.33 118.99,-22.98 128.2,-28.21 129.45,-21.33"/>
</g>
</g>
</svg>
