<?xml version="1.0" encoding="UTF-8" standalone="no"?>
<!DOCTYPE svg PUBLIC "-//W3C//DTD SVG 1.1//EN"
 "http://www.w3.org/Graphics/SVG/1.1/DTD/svg11.dtd">
<!-- Generated by graphviz version 11.0.0 (0)
 -->
<!-- Pages: 1 -->
<svg width="144pt" height="221pt"
 viewBox="0.00 0.00 144.41 221.00" xmlns="http://www.w3.org/2000/svg" xmlns:xlink="http://www.w3.org/1999/xlink">
<g id="graph0" class="graph" transform="scale(1 1) rotate(0) translate(4 217)">
<polygon fill="white" stroke="none" points="-4,4 -4,-217 140.41,-217 140.41,4 -4,4"/>
<!-- Q -->
<g id="node1" class="node">
<title>Q</title>
<ellipse fill="none" stroke="black" cx="32.41" cy="-195" rx="27" ry="18"/>
<text text-anchor="middle" x="32.41" y="-189.95" font-family="Times,serif" font-size="14.00">Q</text>
</g>
<!-- E_hat -->
<g id="node2" class="node">
<title>E_hat</title>
<ellipse fill="none" stroke="black" cx="32.41" cy="-106.5" rx="32.41" ry="18"/>
<text text-anchor="middle" x="32.41" y="-101.45" font-family="Times,serif" font-size="14.00">E_hat</text>
</g>
<!-- Q&#45;&gt;E_hat -->
<g id="edge1" class="edge">
<title>Q&#45;&gt;E_hat</title>
<path fill="none" stroke="black" d="M32.41,-176.91C32.41,-165.26 32.41,-149.55 32.41,-136.02"/>
<polygon fill="black" stroke="black" points="35.91,-136.36 32.41,-126.36 28.91,-136.36 35.91,-136.36"/>
<text text-anchor="middle" x="56.04" y="-145.7" font-family="Times,serif" font-size="14.00">1st stage</text>
</g>
<!-- W -->
<g id="node4" class="node">
<title>W</title>
<ellipse fill="none" stroke="black" cx="70.41" cy="-18" rx="27" ry="18"/>
<text text-anchor="middle" x="70.41" y="-12.95" font-family="Times,serif" font-size="14.00">W</text>
</g>
<!-- E_hat&#45;&gt;W -->
<g id="edge3" class="edge">
<title>E_hat&#45;&gt;W</title>
<path fill="none" stroke="black" d="M30.53,-88.07C30.13,-77.74 30.89,-64.62 35.66,-54 37.92,-48.99 41.22,-44.3 44.91,-40.07"/>
<polygon fill="black" stroke="black" points="47.18,-42.75 51.74,-33.19 42.21,-37.82 47.18,-42.75"/>
<text text-anchor="middle" x="61.29" y="-57.2" font-family="Times,serif" font-size="14.00">2nd stage</text>
</g>
<!-- U -->
<g id="node3" class="node">
<title>U</title>
<ellipse fill="none" stroke="black" stroke-dasharray="5,2" cx="109.41" cy="-106.5" rx="27" ry="18"/>
<text text-anchor="middle" x="109.41" y="-101.45" font-family="Times,serif" font-size="14.00">U</text>
</g>
<!-- U&#45;&gt;W -->
<g id="edge2" class="edge">
<title>U&#45;&gt;W</title>
<path fill="none" stroke="black" d="M102.48,-88.71C98.25,-78.6 92.66,-65.5 87.41,-54 86.14,-51.22 84.79,-48.32 83.42,-45.44"/>
<polygon fill="black" stroke="black" points="86.69,-44.15 79.19,-36.67 80.38,-47.19 86.69,-44.15"/>
</g>
</g>
</svg>
