<?xml version="1.0" encoding="UTF-8" standalone="no"?>
<!DOCTYPE svg PUBLIC "-//W3C//DTD SVG 1.1//EN"
 "http://www.w3.org/Graphics/SVG/1.1/DTD/svg11.dtd">
<!-- Generated by graphviz version 11.0.0 (0)
 -->
<!-- Pages: 1 -->
<svg width="203pt" height="152pt"
 viewBox="0.00 0.00 203.34 152.00" xmlns="http://www.w3.org/2000/svg" xmlns:xlink="http://www.w3.org/1999/xlink">
<g id="graph0" class="graph" transform="scale(1 1) rotate(0) translate(4 148)">
<polygon fill="white" stroke="none" points="-4,4 -4,-148 199.34,-148 199.34,4 -4,4"/>
<!-- age -->
<g id="node1" class="node">
<title>age</title>
<ellipse fill="none" stroke="black" cx="46.23" cy="-126" rx="27" ry="18"/>
<text text-anchor="middle" x="46.23" y="-120.95" font-family="Times,serif" font-size="14.00">age</text>
</g>
<!-- tumor -->
<g id="node2" class="node">
<title>tumor</title>
<ellipse fill="none" stroke="black" cx="161.9" cy="-72" rx="33.44" ry="18"/>
<text text-anchor="middle" x="161.9" y="-66.95" font-family="Times,serif" font-size="14.00">tumor</text>
</g>
<!-- age&#45;&gt;tumor -->
<g id="edge1" class="edge">
<title>age&#45;&gt;tumor</title>
<path fill="none" stroke="black" d="M68.88,-115.72C85,-108.06 107.35,-97.44 125.99,-88.59"/>
<polygon fill="black" stroke="black" points="127.28,-91.85 134.81,-84.4 124.27,-85.53 127.28,-91.85"/>
</g>
<!-- treatment -->
<g id="node3" class="node">
<title>treatment</title>
<ellipse fill="none" stroke="black" cx="46.23" cy="-72" rx="46.23" ry="18"/>
<text text-anchor="middle" x="46.23" y="-66.95" font-family="Times,serif" font-size="14.00">treatment</text>
</g>
<!-- treatment&#45;&gt;tumor -->
<g id="edge2" class="edge">
<title>treatment&#45;&gt;tumor</title>
<path fill="none" stroke="black" d="M92.81,-72C100.78,-72 109.06,-72 116.98,-72"/>
<polygon fill="black" stroke="black" points="116.74,-75.5 126.74,-72 116.74,-68.5 116.74,-75.5"/>
</g>
<!-- time -->
<g id="node4" class="node">
<title>time</title>
<ellipse fill="none" stroke="black" cx="46.23" cy="-18" rx="27.81" ry="18"/>
<text text-anchor="middle" x="46.23" y="-12.95" font-family="Times,serif" font-size="14.00">time</text>
</g>
<!-- time&#45;&gt;tumor -->
<g id="edge3" class="edge">
<title>time&#45;&gt;tumor</title>
<path fill="none" stroke="black" d="M69.42,-28.54C85.41,-36.13 107.31,-46.54 125.67,-55.26"/>
<polygon fill="black" stroke="black" points="124.11,-58.39 134.64,-59.52 127.11,-52.07 124.11,-58.39"/>
</g>
</g>
</svg>
